<mxfile host="app.diagrams.net" agent="Mozilla/5.0 (Windows NT 10.0; Win64; x64) AppleWebKit/537.36 (KHTML, like Gecko) Chrome/130.0.0.0 Safari/537.36 Edg/130.0.0.0" version="27.2.0">
  <diagram name="Page-1" id="GGiwzC2kcz40tZHkrUR2">
    <mxGraphModel dx="1102" dy="722" grid="1" gridSize="10" guides="1" tooltips="1" connect="1" arrows="1" fold="1" page="1" pageScale="1" pageWidth="600" pageHeight="500" math="0" shadow="0">
      <root>
        <mxCell id="0" />
        <mxCell id="1" parent="0" />
        <mxCell id="gqStxiazf_5-via12ryT-68" value="" style="shape=singleArrow;whiteSpace=wrap;html=1;arrowWidth=0.4567254057704057;arrowSize=0.2663211866988104;rotation=-15;" vertex="1" parent="1">
          <mxGeometry x="179" y="182" width="201.51" height="46.12" as="geometry" />
        </mxCell>
        <mxCell id="gqStxiazf_5-via12ryT-11" style="rounded=0;orthogonalLoop=1;jettySize=auto;html=1;exitX=1;exitY=0.25;exitDx=0;exitDy=0;entryX=0;entryY=0;entryDx=0;entryDy=0;strokeWidth=2;" edge="1" parent="1" source="gqStxiazf_5-via12ryT-1" target="gqStxiazf_5-via12ryT-10">
          <mxGeometry relative="1" as="geometry" />
        </mxCell>
        <mxCell id="gqStxiazf_5-via12ryT-1" value="" style="rounded=0;whiteSpace=wrap;html=1;fillColor=light-dark(#dcdee0, #121212);container=0;rotation=90;" vertex="1" parent="1">
          <mxGeometry x="212" y="32" width="40" height="46" as="geometry" />
        </mxCell>
        <mxCell id="gqStxiazf_5-via12ryT-2" value="" style="triangle;whiteSpace=wrap;html=1;strokeWidth=1;fillColor=light-dark(#f9fafb, #1d293b);strokeColor=#000000;fontFamily=Times New Roman;container=0;rotation=90;" vertex="1" parent="1">
          <mxGeometry x="211" y="35" width="10" height="10" as="geometry" />
        </mxCell>
        <mxCell id="gqStxiazf_5-via12ryT-4" value="" style="rounded=0;whiteSpace=wrap;html=1;fillColor=light-dark(#dcdee0, #121212);container=0;rotation=90;" vertex="1" parent="1">
          <mxGeometry x="132" y="32" width="40" height="46" as="geometry" />
        </mxCell>
        <mxCell id="gqStxiazf_5-via12ryT-5" value="" style="triangle;whiteSpace=wrap;html=1;strokeWidth=1;fillColor=light-dark(#f9fafb, #1d293b);strokeColor=#000000;fontFamily=Times New Roman;container=0;rotation=90;" vertex="1" parent="1">
          <mxGeometry x="131" y="35" width="10" height="10" as="geometry" />
        </mxCell>
        <mxCell id="gqStxiazf_5-via12ryT-8" value="" style="rounded=0;whiteSpace=wrap;html=1;fillColor=light-dark(#dcdee0, #121212);container=0;rotation=90;" vertex="1" parent="1">
          <mxGeometry x="28" y="32" width="40" height="46" as="geometry" />
        </mxCell>
        <mxCell id="gqStxiazf_5-via12ryT-9" value="" style="triangle;whiteSpace=wrap;html=1;strokeWidth=1;fillColor=light-dark(#f9fafb, #1d293b);strokeColor=#000000;fontFamily=Times New Roman;container=0;rotation=90;" vertex="1" parent="1">
          <mxGeometry x="27" y="35" width="10" height="10" as="geometry" />
        </mxCell>
        <mxCell id="gqStxiazf_5-via12ryT-14" style="rounded=0;orthogonalLoop=1;jettySize=auto;html=1;entryX=0;entryY=0;entryDx=0;entryDy=0;strokeWidth=2;" edge="1" parent="1" source="gqStxiazf_5-via12ryT-10" target="gqStxiazf_5-via12ryT-13">
          <mxGeometry relative="1" as="geometry" />
        </mxCell>
        <mxCell id="gqStxiazf_5-via12ryT-10" value="" style="shape=orEllipse;perimeter=ellipsePerimeter;whiteSpace=wrap;html=1;backgroundOutline=1;rotation=90;" vertex="1" parent="1">
          <mxGeometry x="179" y="105" width="30" height="30" as="geometry" />
        </mxCell>
        <mxCell id="gqStxiazf_5-via12ryT-12" style="rounded=0;orthogonalLoop=1;jettySize=auto;html=1;exitX=1;exitY=0.25;exitDx=0;exitDy=0;entryX=0.037;entryY=0.689;entryDx=0;entryDy=0;entryPerimeter=0;strokeWidth=2;" edge="1" parent="1" source="gqStxiazf_5-via12ryT-4" target="gqStxiazf_5-via12ryT-10">
          <mxGeometry relative="1" as="geometry" />
        </mxCell>
        <mxCell id="gqStxiazf_5-via12ryT-18" style="edgeStyle=orthogonalEdgeStyle;rounded=0;orthogonalLoop=1;jettySize=auto;html=1;entryX=0;entryY=0.25;entryDx=0;entryDy=0;strokeWidth=2;" edge="1" parent="1" source="gqStxiazf_5-via12ryT-13" target="gqStxiazf_5-via12ryT-16">
          <mxGeometry relative="1" as="geometry">
            <mxPoint x="126" y="212" as="targetPoint" />
          </mxGeometry>
        </mxCell>
        <mxCell id="gqStxiazf_5-via12ryT-13" value="" style="shape=orEllipse;perimeter=ellipsePerimeter;whiteSpace=wrap;html=1;backgroundOutline=1;rotation=90;" vertex="1" parent="1">
          <mxGeometry x="111" y="152" width="30" height="30" as="geometry" />
        </mxCell>
        <mxCell id="gqStxiazf_5-via12ryT-15" style="rounded=0;orthogonalLoop=1;jettySize=auto;html=1;exitX=1;exitY=0.25;exitDx=0;exitDy=0;entryX=0;entryY=1;entryDx=0;entryDy=0;strokeWidth=2;" edge="1" parent="1" source="gqStxiazf_5-via12ryT-8" target="gqStxiazf_5-via12ryT-13">
          <mxGeometry relative="1" as="geometry" />
        </mxCell>
        <mxCell id="gqStxiazf_5-via12ryT-23" style="edgeStyle=orthogonalEdgeStyle;rounded=0;orthogonalLoop=1;jettySize=auto;html=1;exitX=1;exitY=0.25;exitDx=0;exitDy=0;entryX=0;entryY=0.25;entryDx=0;entryDy=0;strokeWidth=2;" edge="1" parent="1" source="gqStxiazf_5-via12ryT-16" target="gqStxiazf_5-via12ryT-21">
          <mxGeometry relative="1" as="geometry" />
        </mxCell>
        <mxCell id="gqStxiazf_5-via12ryT-16" value="" style="rounded=0;whiteSpace=wrap;html=1;fillColor=light-dark(#83c2fd, #121212);container=0;rotation=90;" vertex="1" parent="1">
          <mxGeometry x="94" y="206" width="40" height="46" as="geometry" />
        </mxCell>
        <mxCell id="gqStxiazf_5-via12ryT-17" value="" style="triangle;whiteSpace=wrap;html=1;strokeWidth=1;fillColor=light-dark(#f9fafb, #1d293b);strokeColor=#000000;fontFamily=Times New Roman;container=0;rotation=90;" vertex="1" parent="1">
          <mxGeometry x="97" y="209" width="10" height="10" as="geometry" />
        </mxCell>
        <mxCell id="gqStxiazf_5-via12ryT-21" value="" style="rounded=0;whiteSpace=wrap;html=1;fillColor=light-dark(#dcdee0, #121212);container=0;rotation=90;" vertex="1" parent="1">
          <mxGeometry x="94" y="272" width="40" height="46" as="geometry" />
        </mxCell>
        <mxCell id="gqStxiazf_5-via12ryT-22" value="" style="triangle;whiteSpace=wrap;html=1;strokeWidth=1;fillColor=light-dark(#f9fafb, #1d293b);strokeColor=#000000;fontFamily=Times New Roman;container=0;rotation=90;" vertex="1" parent="1">
          <mxGeometry x="97" y="275" width="10" height="10" as="geometry" />
        </mxCell>
        <mxCell id="gqStxiazf_5-via12ryT-42" style="rounded=0;orthogonalLoop=1;jettySize=auto;html=1;exitX=1;exitY=0.25;exitDx=0;exitDy=0;entryX=0;entryY=0;entryDx=0;entryDy=0;strokeWidth=2;" edge="1" parent="1" source="gqStxiazf_5-via12ryT-43" target="gqStxiazf_5-via12ryT-50">
          <mxGeometry relative="1" as="geometry" />
        </mxCell>
        <mxCell id="gqStxiazf_5-via12ryT-43" value="" style="rounded=0;whiteSpace=wrap;html=1;fillColor=light-dark(#dcdee0, #121212);container=0;rotation=90;" vertex="1" parent="1">
          <mxGeometry x="554" y="31" width="40" height="46" as="geometry" />
        </mxCell>
        <mxCell id="gqStxiazf_5-via12ryT-44" value="" style="triangle;whiteSpace=wrap;html=1;strokeWidth=1;fillColor=light-dark(#f9fafb, #1d293b);strokeColor=#000000;fontFamily=Times New Roman;container=0;rotation=90;" vertex="1" parent="1">
          <mxGeometry x="553" y="34" width="10" height="10" as="geometry" />
        </mxCell>
        <mxCell id="gqStxiazf_5-via12ryT-45" value="" style="rounded=0;whiteSpace=wrap;html=1;fillColor=light-dark(#dcdee0, #121212);container=0;rotation=90;" vertex="1" parent="1">
          <mxGeometry x="474" y="31" width="40" height="46" as="geometry" />
        </mxCell>
        <mxCell id="gqStxiazf_5-via12ryT-46" value="" style="triangle;whiteSpace=wrap;html=1;strokeWidth=1;fillColor=light-dark(#f9fafb, #1d293b);strokeColor=#000000;fontFamily=Times New Roman;container=0;rotation=90;" vertex="1" parent="1">
          <mxGeometry x="473" y="34" width="10" height="10" as="geometry" />
        </mxCell>
        <mxCell id="gqStxiazf_5-via12ryT-47" value="" style="rounded=0;whiteSpace=wrap;html=1;fillColor=light-dark(#dcdee0, #121212);container=0;rotation=90;" vertex="1" parent="1">
          <mxGeometry x="369" y="31" width="40" height="46" as="geometry" />
        </mxCell>
        <mxCell id="gqStxiazf_5-via12ryT-48" value="" style="triangle;whiteSpace=wrap;html=1;strokeWidth=1;fillColor=light-dark(#f9fafb, #1d293b);strokeColor=#000000;fontFamily=Times New Roman;container=0;rotation=90;" vertex="1" parent="1">
          <mxGeometry x="368" y="34" width="10" height="10" as="geometry" />
        </mxCell>
        <mxCell id="gqStxiazf_5-via12ryT-49" style="rounded=0;orthogonalLoop=1;jettySize=auto;html=1;entryX=0;entryY=0.25;entryDx=0;entryDy=0;strokeWidth=2;" edge="1" parent="1" source="gqStxiazf_5-via12ryT-50" target="gqStxiazf_5-via12ryT-61">
          <mxGeometry relative="1" as="geometry">
            <mxPoint x="497" y="140" as="targetPoint" />
          </mxGeometry>
        </mxCell>
        <mxCell id="gqStxiazf_5-via12ryT-50" value="" style="shape=orEllipse;perimeter=ellipsePerimeter;whiteSpace=wrap;html=1;backgroundOutline=1;rotation=90;" vertex="1" parent="1">
          <mxGeometry x="521" y="104" width="30" height="30" as="geometry" />
        </mxCell>
        <mxCell id="gqStxiazf_5-via12ryT-51" style="rounded=0;orthogonalLoop=1;jettySize=auto;html=1;exitX=1;exitY=0.25;exitDx=0;exitDy=0;entryX=0.037;entryY=0.689;entryDx=0;entryDy=0;entryPerimeter=0;strokeWidth=2;" edge="1" parent="1" source="gqStxiazf_5-via12ryT-45" target="gqStxiazf_5-via12ryT-50">
          <mxGeometry relative="1" as="geometry" />
        </mxCell>
        <mxCell id="gqStxiazf_5-via12ryT-52" style="edgeStyle=orthogonalEdgeStyle;rounded=0;orthogonalLoop=1;jettySize=auto;html=1;entryX=0;entryY=0.25;entryDx=0;entryDy=0;strokeWidth=2;" edge="1" parent="1" source="gqStxiazf_5-via12ryT-53" target="gqStxiazf_5-via12ryT-56">
          <mxGeometry relative="1" as="geometry">
            <mxPoint x="465" y="280" as="targetPoint" />
          </mxGeometry>
        </mxCell>
        <mxCell id="gqStxiazf_5-via12ryT-53" value="" style="shape=orEllipse;perimeter=ellipsePerimeter;whiteSpace=wrap;html=1;backgroundOutline=1;rotation=90;" vertex="1" parent="1">
          <mxGeometry x="451" y="220" width="30" height="30" as="geometry" />
        </mxCell>
        <mxCell id="gqStxiazf_5-via12ryT-54" style="rounded=0;orthogonalLoop=1;jettySize=auto;html=1;exitX=1;exitY=0.25;exitDx=0;exitDy=0;entryX=0;entryY=0.25;entryDx=0;entryDy=0;strokeWidth=2;" edge="1" parent="1" source="gqStxiazf_5-via12ryT-47" target="gqStxiazf_5-via12ryT-64">
          <mxGeometry relative="1" as="geometry">
            <mxPoint x="457" y="140" as="targetPoint" />
          </mxGeometry>
        </mxCell>
        <mxCell id="gqStxiazf_5-via12ryT-56" value="" style="rounded=0;whiteSpace=wrap;html=1;fillColor=light-dark(#dcdee0, #121212);container=0;rotation=90;" vertex="1" parent="1">
          <mxGeometry x="434" y="274" width="40" height="46" as="geometry" />
        </mxCell>
        <mxCell id="gqStxiazf_5-via12ryT-57" value="" style="triangle;whiteSpace=wrap;html=1;strokeWidth=1;fillColor=light-dark(#f9fafb, #1d293b);strokeColor=#000000;fontFamily=Times New Roman;container=0;rotation=90;" vertex="1" parent="1">
          <mxGeometry x="437" y="277" width="10" height="10" as="geometry" />
        </mxCell>
        <mxCell id="gqStxiazf_5-via12ryT-66" style="rounded=0;orthogonalLoop=1;jettySize=auto;html=1;exitX=1;exitY=0.25;exitDx=0;exitDy=0;entryX=0;entryY=0;entryDx=0;entryDy=0;strokeWidth=2;" edge="1" parent="1" source="gqStxiazf_5-via12ryT-61" target="gqStxiazf_5-via12ryT-53">
          <mxGeometry relative="1" as="geometry" />
        </mxCell>
        <mxCell id="gqStxiazf_5-via12ryT-61" value="" style="rounded=0;whiteSpace=wrap;html=1;fillColor=light-dark(#83c2fd, #121212);container=0;rotation=90;" vertex="1" parent="1">
          <mxGeometry x="474" y="147" width="40" height="46" as="geometry" />
        </mxCell>
        <mxCell id="gqStxiazf_5-via12ryT-62" value="" style="triangle;whiteSpace=wrap;html=1;strokeWidth=1;fillColor=light-dark(#f9fafb, #1d293b);strokeColor=#000000;fontFamily=Times New Roman;container=0;rotation=90;" vertex="1" parent="1">
          <mxGeometry x="477" y="150" width="10" height="10" as="geometry" />
        </mxCell>
        <mxCell id="gqStxiazf_5-via12ryT-67" style="rounded=0;orthogonalLoop=1;jettySize=auto;html=1;exitX=1;exitY=0.25;exitDx=0;exitDy=0;entryX=0;entryY=1;entryDx=0;entryDy=0;strokeWidth=2;" edge="1" parent="1" source="gqStxiazf_5-via12ryT-64" target="gqStxiazf_5-via12ryT-53">
          <mxGeometry relative="1" as="geometry" />
        </mxCell>
        <mxCell id="gqStxiazf_5-via12ryT-64" value="" style="rounded=0;whiteSpace=wrap;html=1;fillColor=light-dark(#83c2fd, #121212);container=0;rotation=90;" vertex="1" parent="1">
          <mxGeometry x="410" y="147" width="40" height="46" as="geometry" />
        </mxCell>
        <mxCell id="gqStxiazf_5-via12ryT-65" value="" style="triangle;whiteSpace=wrap;html=1;strokeWidth=1;fillColor=light-dark(#f9fafb, #1d293b);strokeColor=#000000;fontFamily=Times New Roman;container=0;rotation=90;" vertex="1" parent="1">
          <mxGeometry x="413" y="150" width="10" height="10" as="geometry" />
        </mxCell>
      </root>
    </mxGraphModel>
  </diagram>
</mxfile>
